<svg width="1730" height="842" xmlns="http://www.w3.org/2000/svg"><g><path d="M-41,-74L-64,147L-6,66Z" fill="#ffffba" stroke="#ffffba"/><path d="M-41,-74L-6,66L26,8Z" fill="#ffffc4" stroke="#ffffc4"/><path d="M-41,-74L26,8L42,-18Z" fill="#ffffcb" stroke="#ffffcb"/><path d="M-41,-74L42,-18L136,-21Z" fill="#fffcc9" stroke="#fffcc9"/><path d="M-41,-74L136,-21L258,-58Z" fill="#fff6c4" stroke="#fff6c4"/><path d="M-41,-74L258,-58L342,-73Z" fill="#fff1c1" stroke="#fff1c1"/><path d="M-41,-74L342,-73L643,-81Z" fill="#ffe7b5" stroke="#ffe7b5"/><path d="M42,-18L26,8L136,-21Z" fill="#fffabe" stroke="#fffabe"/><path d="M136,-21L26,8L161,41Z" fill="#fff7b3" stroke="#fff7b3"/><path d="M136,-21L161,41L226,5Z" fill="#fff2ac" stroke="#fff2ac"/><path d="M136,-21L226,5L258,-58Z" fill="#ffefb2" stroke="#ffefb2"/><path d="M258,-58L226,5L327,47Z" fill="#ffeaa4" stroke="#ffeaa4"/><path d="M258,-58L327,47L342,-73Z" fill="#ffe7a8" stroke="#ffe7a8"/><path d="M342,-73L327,47L377,-50Z" fill="#ffe4a4" stroke="#ffe4a4"/><path d="M342,-73L377,-50L489,-71Z" fill="#ffe0ab" stroke="#ffe0ab"/><path d="M342,-73L489,-71L643,-81Z" fill="#ffd9a6" stroke="#ffd9a6"/><path d="M377,-50L327,47L404,15Z" fill="#ffe39a" stroke="#ffe39a"/><path d="M377,-50L404,15L489,-71Z" fill="#ffdea1" stroke="#ffdea1"/><path d="M489,-71L404,15L517,58Z" fill="#ffdb92" stroke="#ffdb92"/><path d="M489,-71L517,58L610,15Z" fill="#ffd58f" stroke="#ffd58f"/><path d="M489,-71L610,15L612,-75Z" fill="#ffd39b" stroke="#ffd39b"/><path d="M489,-71L612,-75L643,-81Z" fill="#ffd2a3" stroke="#ffd2a3"/><path d="M612,-75L610,15L643,-81Z" fill="#fecf9a" stroke="#fecf9a"/><path d="M643,-81L610,15L665,21Z" fill="#fece90" stroke="#fece90"/><path d="M643,-81L665,21L763,-74Z" fill="#feca97" stroke="#feca97"/><path d="M643,-81L763,-74L1335,-70Z" fill="#feb097" stroke="#feb097"/><path d="M763,-74L665,21L740,25Z" fill="#fec88c" stroke="#fec88c"/><path d="M763,-74L740,25L875,-64Z" fill="#fec091" stroke="#fec091"/><path d="M763,-74L875,-64L934,-62Z" fill="#feb798" stroke="#feb798"/><path d="M763,-74L934,-62L1335,-70Z" fill="#fda493" stroke="#fda493"/><path d="M875,-64L740,25L840,82Z" fill="#febc81" stroke="#febc81"/><path d="M875,-64L840,82L911,16Z" fill="#feb580" stroke="#feb580"/><path d="M875,-64L911,16L934,-62Z" fill="#feb18d" stroke="#feb18d"/><path d="M934,-62L911,16L1028,-49Z" fill="#feab8a" stroke="#feab8a"/><path d="M934,-62L1028,-49L1335,-70Z" fill="#f89b8e" stroke="#f89b8e"/><path d="M1028,-49L911,16L1044,69Z" fill="#fda67c" stroke="#fda67c"/><path d="M1028,-49L1044,69L1128,7Z" fill="#fa9f7b" stroke="#fa9f7b"/><path d="M1028,-49L1128,7L1151,-31Z" fill="#f89b83" stroke="#f89b83"/><path d="M1028,-49L1151,-31L1335,-70Z" fill="#f59489" stroke="#f59489"/><path d="M1151,-31L1128,7L1228,-24Z" fill="#f5947f" stroke="#f5947f"/><path d="M1151,-31L1228,-24L1335,-70Z" fill="#f18d85" stroke="#f18d85"/><path d="M1228,-24L1128,7L1252,19Z" fill="#f39079" stroke="#f39079"/><path d="M1228,-24L1252,19L1272,16Z" fill="#f08c78" stroke="#f08c78"/><path d="M1228,-24L1272,16L1335,-70Z" fill="#ed8b81" stroke="#ed8b81"/><path d="M1335,-70L1272,16L1373,-60Z" fill="#e88885" stroke="#e88885"/><path d="M1335,-70L1373,-60L1550,-57Z" fill="#df838e" stroke="#df838e"/><path d="M1335,-70L1550,-57L1755,-56Z" fill="#d28091" stroke="#d28091"/><path d="M1335,-70L1755,-56L1826,-54Z" fill="#c88092" stroke="#c88092"/><path d="M1373,-60L1272,16L1417,33Z" fill="#e5877c" stroke="#e5877c"/><path d="M1373,-60L1417,33L1490,-5Z" fill="#de837f" stroke="#de837f"/><path d="M1373,-60L1490,-5L1550,-57Z" fill="#d98089" stroke="#d98089"/><path d="M1490,-5L1417,33L1514,84Z" fill="#d98072" stroke="#d98072"/><path d="M1490,-5L1514,84L1585,13Z" fill="#d48075" stroke="#d48075"/><path d="M1490,-5L1585,13L1550,-57Z" fill="#d28083" stroke="#d28083"/><path d="M1550,-57L1585,13L1649,-45Z" fill="#cd8089" stroke="#cd8089"/><path d="M1550,-57L1649,-45L1755,-56Z" fill="#c78090" stroke="#c78090"/><path d="M1649,-45L1585,13L1633,71Z" fill="#ca807c" stroke="#ca807c"/><path d="M1649,-45L1633,71L1765,11Z" fill="#c4807e" stroke="#c4807e"/><path d="M1649,-45L1765,11L1755,-56Z" fill="#c0808b" stroke="#c0808b"/><path d="M1755,-56L1765,11L1826,-54Z" fill="#ba808d" stroke="#ba808d"/><path d="M1826,-54L1765,11L1812,54Z" fill="#b88083" stroke="#b88083"/><path d="M1826,-54L1812,54L1870,137Z" fill="#b58077" stroke="#b58077"/><path d="M-6,66L-64,147L18,154Z" fill="#ffffa1" stroke="#ffffa1"/><path d="M-6,66L18,154L161,41Z" fill="#fffba3" stroke="#fffba3"/><path d="M-6,66L161,41L26,8Z" fill="#fffbb0" stroke="#fffbb0"/><path d="M161,41L18,154L129,171Z" fill="#fff793" stroke="#fff793"/><path d="M161,41L129,171L230,129Z" fill="#fff28d" stroke="#fff28d"/><path d="M161,41L230,129L226,5Z" fill="#ffef99" stroke="#ffef99"/><path d="M226,5L230,129L327,47Z" fill="#ffeb92" stroke="#ffeb92"/><path d="M327,47L230,129L343,146Z" fill="#ffe881" stroke="#ffe881"/><path d="M327,47L343,146L408,119Z" fill="#ffe37d" stroke="#ffe37d"/><path d="M327,47L408,119L404,15Z" fill="#ffe288" stroke="#ffe288"/><path d="M404,15L408,119L517,58Z" fill="#ffdd82" stroke="#ffdd82"/><path d="M517,58L408,119L523,145Z" fill="#ffda72" stroke="#ffda72"/><path d="M517,58L523,145L648,118Z" fill="#ffd46f" stroke="#ffd46f"/><path d="M517,58L648,118L610,15Z" fill="#ffd17a" stroke="#ffd17a"/><path d="M610,15L648,118L665,21Z" fill="#fece7d" stroke="#fece7d"/><path d="M665,21L648,118L736,116Z" fill="#fecb71" stroke="#fecb71"/><path d="M665,21L736,116L740,25Z" fill="#fec879" stroke="#fec879"/><path d="M740,25L736,116L840,82Z" fill="#fec271" stroke="#fec271"/><path d="M840,82L736,116L828,166Z" fill="#febf63" stroke="#febf63"/><path d="M840,82L828,166L908,118Z" fill="#feb760" stroke="#feb760"/><path d="M840,82L908,118L911,16Z" fill="#feb46e" stroke="#feb46e"/><path d="M911,16L908,118L1044,69Z" fill="#feab6c" stroke="#feab6c"/><path d="M1044,69L908,118L1033,118Z" fill="#fda661" stroke="#fda661"/><path d="M1044,69L1033,118L1164,122Z" fill="#f99d5e" stroke="#f99d5e"/><path d="M1044,69L1164,122L1128,7Z" fill="#f89a68" stroke="#f89a68"/><path d="M1128,7L1164,122L1186,121Z" fill="#f59562" stroke="#f59562"/><path d="M1128,7L1186,121L1252,19Z" fill="#f4926b" stroke="#f4926b"/><path d="M1252,19L1186,121L1293,152Z" fill="#f08c5c" stroke="#f08c5c"/><path d="M1252,19L1293,152L1272,16Z" fill="#ee8b66" stroke="#ee8b66"/><path d="M1272,16L1293,152L1417,33Z" fill="#e88866" stroke="#e88866"/><path d="M1417,33L1293,152L1423,165Z" fill="#e38559" stroke="#e38559"/><path d="M1417,33L1423,165L1480,157Z" fill="#dd8259" stroke="#dd8259"/><path d="M1417,33L1480,157L1514,84Z" fill="#da8062" stroke="#da8062"/><path d="M1514,84L1480,157L1545,135Z" fill="#d57f59" stroke="#d57f59"/><path d="M1514,84L1545,135L1633,71Z" fill="#d08062" stroke="#d08062"/><path d="M1514,84L1633,71L1585,13Z" fill="#cf806f" stroke="#cf806f"/><path d="M1633,71L1545,135L1636,129Z" fill="#cc805f" stroke="#cc805f"/><path d="M1633,71L1636,129L1790,151Z" fill="#c4805f" stroke="#c4805f"/><path d="M1633,71L1790,151L1765,11Z" fill="#bf806b" stroke="#bf806b"/><path d="M1765,11L1790,151L1812,54Z" fill="#b9806e" stroke="#b9806e"/><path d="M1812,54L1790,151L1870,137Z" fill="#b68063" stroke="#b68063"/><path d="M-64,147L-84,763L-52,576Z" fill="#ffab79" stroke="#ffab79"/><path d="M-64,147L-52,576L-39,304Z" fill="#ffd785" stroke="#ffd785"/><path d="M-64,147L-39,304L-21,213Z" fill="#ffed8f" stroke="#ffed8f"/><path d="M-64,147L-21,213L18,154Z" fill="#fff697" stroke="#fff697"/><path d="M18,154L-21,213L37,261Z" fill="#ffee8b" stroke="#ffee8b"/><path d="M18,154L37,261L97,228Z" fill="#ffea86" stroke="#ffea86"/><path d="M18,154L97,228L129,171Z" fill="#ffed88" stroke="#ffed88"/><path d="M129,171L97,228L172,283Z" fill="#ffe279" stroke="#ffe279"/><path d="M129,171L172,283L249,245Z" fill="#ffdd71" stroke="#ffdd71"/><path d="M129,171L249,245L230,129Z" fill="#ffe57a" stroke="#ffe57a"/><path d="M230,129L249,245L304,215Z" fill="#ffde71" stroke="#ffde71"/><path d="M230,129L304,215L343,146Z" fill="#ffe175" stroke="#ffe175"/><path d="M343,146L304,215L444,262Z" fill="#ffd465" stroke="#ffd465"/><path d="M343,146L444,262L408,119Z" fill="#ffd669" stroke="#ffd669"/><path d="M408,119L444,262L503,218Z" fill="#ffce5f" stroke="#ffce5f"/><path d="M408,119L503,218L523,145Z" fill="#ffd366" stroke="#ffd366"/><path d="M523,145L503,218L598,168Z" fill="#ffcb5f" stroke="#ffcb5f"/><path d="M523,145L598,168L648,118Z" fill="#ffce65" stroke="#ffce65"/><path d="M598,168L503,218L587,278Z" fill="#ffc255" stroke="#ffc255"/><path d="M598,168L587,278L622,251Z" fill="#ffbd51" stroke="#ffbd51"/><path d="M598,168L622,251L636,240Z" fill="#febd54" stroke="#febd54"/><path d="M598,168L636,240L648,118Z" fill="#fec55d" stroke="#fec55d"/><path d="M648,118L636,240L732,234Z" fill="#febd56" stroke="#febd56"/><path d="M648,118L732,234L736,116Z" fill="#fec25e" stroke="#fec25e"/><path d="M736,116L732,234L828,166Z" fill="#feba59" stroke="#feba59"/><path d="M828,166L732,234L871,250Z" fill="#feac4e" stroke="#feac4e"/><path d="M828,166L871,250L908,118Z" fill="#feab54" stroke="#feab54"/><path d="M908,118L871,250L971,186Z" fill="#fea451" stroke="#fea451"/><path d="M908,118L971,186L1033,118Z" fill="#fea658" stroke="#fea658"/><path d="M1033,118L971,186L1061,243Z" fill="#fc984e" stroke="#fc984e"/><path d="M1033,118L1061,243L1121,230Z" fill="#fa9149" stroke="#fa9149"/><path d="M1033,118L1121,230L1164,122Z" fill="#f89451" stroke="#f89451"/><path d="M1164,122L1121,230L1209,203Z" fill="#f58949" stroke="#f58949"/><path d="M1164,122L1209,203L1186,121Z" fill="#f48d50" stroke="#f48d50"/><path d="M1186,121L1209,203L1293,152Z" fill="#f2864d" stroke="#f2864d"/><path d="M1293,152L1209,203L1267,262Z" fill="#ef7c43" stroke="#ef7c43"/><path d="M1293,152L1267,262L1362,260Z" fill="#ea7640" stroke="#ea7640"/><path d="M1293,152L1362,260L1423,165Z" fill="#e57948" stroke="#e57948"/><path d="M1423,165L1362,260L1434,309Z" fill="#e06e3e" stroke="#e06e3e"/><path d="M1423,165L1434,309L1505,205Z" fill="#db6e43" stroke="#db6e43"/><path d="M1423,165L1505,205L1480,157Z" fill="#da764e" stroke="#da764e"/><path d="M1480,157L1505,205L1545,135Z" fill="#d67851" stroke="#d67851"/><path d="M1545,135L1505,205L1546,263Z" fill="#d3714a" stroke="#d3714a"/><path d="M1545,135L1546,263L1650,199Z" fill="#ce724b" stroke="#ce724b"/><path d="M1545,135L1650,199L1636,129Z" fill="#cb7a55" stroke="#cb7a55"/><path d="M1636,129L1650,199L1728,190Z" fill="#c57653" stroke="#c57653"/><path d="M1636,129L1728,190L1790,151Z" fill="#c07957" stroke="#c07957"/><path d="M1790,151L1728,190L1812,209Z" fill="#bb7452" stroke="#bb7452"/><path d="M1790,151L1812,209L1870,137Z" fill="#b67857" stroke="#b67857"/><path d="M1870,137L1812,209L1843,305Z" fill="#b46e4d" stroke="#b46e4d"/><path d="M1870,137L1843,305L1869,500Z" fill="#b25d42" stroke="#b25d42"/><path d="M1870,137L1869,500L1872,621Z" fill="#b1423a" stroke="#b1423a"/><path d="M-21,213L-39,304L37,261Z" fill="#ffe686" stroke="#ffe686"/><path d="M37,261L-39,304L53,346Z" fill="#ffdd7f" stroke="#ffdd7f"/><path d="M37,261L53,346L97,228Z" fill="#ffde7c" stroke="#ffde7c"/><path d="M97,228L53,346L172,283Z" fill="#ffd976" stroke="#ffd976"/><path d="M249,245L172,283L202,331Z" fill="#ffd16a" stroke="#ffd16a"/><path d="M249,245L202,331L283,313Z" fill="#ffcd64" stroke="#ffcd64"/><path d="M249,245L283,313L304,215Z" fill="#ffd164" stroke="#ffd164"/><path d="M304,215L283,313L444,262Z" fill="#ffcb5e" stroke="#ffcb5e"/><path d="M444,262L283,313L441,339Z" fill="#ffc057" stroke="#ffc057"/><path d="M444,262L441,339L472,338Z" fill="#ffba51" stroke="#ffba51"/><path d="M444,262L472,338L503,218Z" fill="#ffbf53" stroke="#ffbf53"/><path d="M503,218L472,338L587,278Z" fill="#ffba4f" stroke="#ffba4f"/><path d="M622,251L587,278L650,332Z" fill="#feb14c" stroke="#feb14c"/><path d="M622,251L650,332L636,240Z" fill="#feb34c" stroke="#feb34c"/><path d="M636,240L650,332L732,234Z" fill="#feb14b" stroke="#feb14b"/><path d="M732,234L650,332L793,345Z" fill="#fea647" stroke="#fea647"/><path d="M732,234L793,345L855,284Z" fill="#fea246" stroke="#fea246"/><path d="M732,234L855,284L871,250Z" fill="#fea447" stroke="#fea447"/><path d="M871,250L855,284L954,319Z" fill="#fe9542" stroke="#fe9542"/><path d="M871,250L954,319L971,186Z" fill="#fe9643" stroke="#fe9643"/><path d="M971,186L954,319L1061,243Z" fill="#fd8f42" stroke="#fd8f42"/><path d="M1061,243L954,319L1062,309Z" fill="#fc843d" stroke="#fc843d"/><path d="M1061,243L1062,309L1121,230Z" fill="#f9843e" stroke="#f9843e"/><path d="M1121,230L1062,309L1126,343Z" fill="#f87b3b" stroke="#f87b3b"/><path d="M1121,230L1126,343L1210,324Z" fill="#f57639" stroke="#f57639"/><path d="M1121,230L1210,324L1209,203Z" fill="#f47b3c" stroke="#f47b3c"/><path d="M1209,203L1210,324L1267,262Z" fill="#f27439" stroke="#f27439"/><path d="M1267,262L1210,324L1270,322Z" fill="#f06b37" stroke="#f06b37"/><path d="M1267,262L1270,322L1362,260Z" fill="#eb6c3a" stroke="#eb6c3a"/><path d="M1362,260L1270,322L1288,382Z" fill="#ea6536" stroke="#ea6536"/><path d="M1362,260L1288,382L1403,386Z" fill="#e65f36" stroke="#e65f36"/><path d="M1362,260L1403,386L1434,309Z" fill="#e16139" stroke="#e16139"/><path d="M1505,205L1434,309L1498,320Z" fill="#d9633d" stroke="#d9633d"/><path d="M1505,205L1498,320L1546,263Z" fill="#d5663f" stroke="#d5663f"/><path d="M1546,263L1498,320L1553,312Z" fill="#d3603d" stroke="#d3603d"/><path d="M1546,263L1553,312L1651,330Z" fill="#ce5f3d" stroke="#ce5f3d"/><path d="M1546,263L1651,330L1650,199Z" fill="#cb6641" stroke="#cb6641"/><path d="M1650,199L1651,330L1716,318Z" fill="#c56341" stroke="#c56341"/><path d="M1650,199L1716,318L1728,190Z" fill="#c26b46" stroke="#c26b46"/><path d="M1728,190L1716,318L1812,209Z" fill="#bd6b46" stroke="#bd6b46"/><path d="M1812,209L1716,318L1843,305Z" fill="#b96443" stroke="#b96443"/><path d="M-39,304L-52,576L-20,477Z" fill="#ffb779" stroke="#ffb779"/><path d="M-39,304L-20,477L-12,391Z" fill="#ffca7d" stroke="#ffca7d"/><path d="M-39,304L-12,391L53,346Z" fill="#ffd67e" stroke="#ffd67e"/><path d="M53,346L-12,391L40,407Z" fill="#ffcb77" stroke="#ffcb77"/><path d="M53,346L40,407L105,394Z" fill="#ffc873" stroke="#ffc873"/><path d="M53,346L105,394L172,283Z" fill="#ffcf71" stroke="#ffcf71"/><path d="M172,283L105,394L202,331Z" fill="#ffcc6b" stroke="#ffcc6b"/><path d="M202,331L105,394L201,375Z" fill="#ffc568" stroke="#ffc568"/><path d="M202,331L201,375L283,313Z" fill="#ffc662" stroke="#ffc662"/><path d="M283,313L201,375L345,417Z" fill="#ffbc5c" stroke="#ffbc5c"/><path d="M283,313L345,417L441,339Z" fill="#ffb956" stroke="#ffb956"/><path d="M441,339L345,417L392,415Z" fill="#ffac50" stroke="#ffac50"/><path d="M441,339L392,415L505,442Z" fill="#ffa54a" stroke="#ffa54a"/><path d="M441,339L505,442L472,338Z" fill="#ffab4b" stroke="#ffab4b"/><path d="M472,338L505,442L585,402Z" fill="#ffa146" stroke="#ffa146"/><path d="M472,338L585,402L587,278Z" fill="#ffad4a" stroke="#ffad4a"/><path d="M587,278L585,402L650,332Z" fill="#ffa948" stroke="#ffa948"/><path d="M650,332L585,402L646,370Z" fill="#fea145" stroke="#fea145"/><path d="M650,332L646,370L782,373Z" fill="#fe9f43" stroke="#fe9f43"/><path d="M650,332L782,373L793,345Z" fill="#fe9d43" stroke="#fe9d43"/><path d="M793,345L782,373L844,402Z" fill="#fe8e3e" stroke="#fe8e3e"/><path d="M793,345L844,402L855,284Z" fill="#fe9240" stroke="#fe9240"/><path d="M855,284L844,402L954,319Z" fill="#fe8d3f" stroke="#fe8d3f"/><path d="M954,319L844,402L958,437Z" fill="#fe7c39" stroke="#fe7c39"/><path d="M954,319L958,437L1065,416Z" fill="#fe7136" stroke="#fe7136"/><path d="M954,319L1065,416L1062,309Z" fill="#fc7a39" stroke="#fc7a39"/><path d="M1062,309L1065,416L1126,343Z" fill="#f97237" stroke="#f97237"/><path d="M1126,343L1065,416L1158,380Z" fill="#f76834" stroke="#f76834"/><path d="M1126,343L1158,380L1210,324Z" fill="#f56b35" stroke="#f56b35"/><path d="M1210,324L1158,380L1223,413Z" fill="#f36232" stroke="#f36232"/><path d="M1210,324L1223,413L1288,382Z" fill="#f15d31" stroke="#f15d31"/><path d="M1210,324L1288,382L1270,322Z" fill="#ef6434" stroke="#ef6434"/><path d="M1434,309L1403,386L1489,373Z" fill="#dc5736" stroke="#dc5736"/><path d="M1434,309L1489,373L1498,320Z" fill="#d95a39" stroke="#d95a39"/><path d="M1498,320L1489,373L1545,371Z" fill="#d55538" stroke="#d55538"/><path d="M1498,320L1545,371L1553,312Z" fill="#d3593a" stroke="#d3593a"/><path d="M1553,312L1545,371L1651,330Z" fill="#ce583b" stroke="#ce583b"/><path d="M1651,330L1545,371L1647,406Z" fill="#cb5239" stroke="#cb5239"/><path d="M1651,330L1647,406L1716,318Z" fill="#c5563c" stroke="#c5563c"/><path d="M1716,318L1647,406L1771,410Z" fill="#c14f3a" stroke="#c14f3a"/><path d="M1716,318L1771,410L1843,305Z" fill="#bb573e" stroke="#bb573e"/><path d="M1843,305L1771,410L1820,430Z" fill="#b74e3b" stroke="#b74e3b"/><path d="M1843,305L1820,430L1869,500Z" fill="#b4443a" stroke="#b4443a"/><path d="M-12,391L-20,477L40,407Z" fill="#ffc077" stroke="#ffc077"/><path d="M40,407L-20,477L63,518Z" fill="#ffb170" stroke="#ffb170"/><path d="M40,407L63,518L105,394Z" fill="#ffb66d" stroke="#ffb66d"/><path d="M105,394L63,518L152,485Z" fill="#ffab67" stroke="#ffab67"/><path d="M105,394L152,485L201,375Z" fill="#ffb665" stroke="#ffb665"/><path d="M201,375L152,485L206,506Z" fill="#ffa85e" stroke="#ffa85e"/><path d="M201,375L206,506L345,417Z" fill="#ffaa58" stroke="#ffaa58"/><path d="M345,417L206,506L328,530Z" fill="#ff9750" stroke="#ff9750"/><path d="M345,417L328,530L434,482Z" fill="#ff934a" stroke="#ff934a"/><path d="M345,417L434,482L392,415Z" fill="#ff9d4c" stroke="#ff9d4c"/><path d="M392,415L434,482L492,462Z" fill="#ff9546" stroke="#ff9546"/><path d="M392,415L492,462L505,442Z" fill="#ff9745" stroke="#ff9745"/><path d="M505,442L492,462L597,528Z" fill="#ff863f" stroke="#ff863f"/><path d="M505,442L597,528L585,402Z" fill="#ff8a3f" stroke="#ff8a3f"/><path d="M585,402L597,528L640,485Z" fill="#ff823d" stroke="#ff823d"/><path d="M585,402L640,485L646,370Z" fill="#fe9241" stroke="#fe9241"/><path d="M646,370L640,485L765,481Z" fill="#fe853c" stroke="#fe853c"/><path d="M646,370L765,481L782,373Z" fill="#fe8d3e" stroke="#fe8d3e"/><path d="M782,373L765,481L844,402Z" fill="#fe823b" stroke="#fe823b"/><path d="M844,402L765,481L839,518Z" fill="#fe7036" stroke="#fe7036"/><path d="M844,402L839,518L958,437Z" fill="#fe6d35" stroke="#fe6d35"/><path d="M958,437L839,518L975,472Z" fill="#fe5f31" stroke="#fe5f31"/><path d="M958,437L975,472L1065,416Z" fill="#fd6131" stroke="#fd6131"/><path d="M1065,416L975,472L1067,523Z" fill="#fb542e" stroke="#fb542e"/><path d="M1065,416L1067,523L1106,494Z" fill="#f94d2c" stroke="#f94d2c"/><path d="M1065,416L1106,494L1158,380Z" fill="#f8592f" stroke="#f8592f"/><path d="M1158,380L1106,494L1223,413Z" fill="#f5542e" stroke="#f5542e"/><path d="M1223,413L1106,494L1253,507Z" fill="#f34329" stroke="#f34329"/><path d="M1223,413L1253,507L1281,497Z" fill="#f03d29" stroke="#f03d29"/><path d="M1223,413L1281,497L1288,382Z" fill="#ee4a2c" stroke="#ee4a2c"/><path d="M1288,382L1281,497L1417,480Z" fill="#e8402c" stroke="#e8402c"/><path d="M1288,382L1417,480L1403,386Z" fill="#e4492f" stroke="#e4492f"/><path d="M1403,386L1417,480L1492,465Z" fill="#dd3d2f" stroke="#dd3d2f"/><path d="M1403,386L1492,465L1489,373Z" fill="#da4732" stroke="#da4732"/><path d="M1489,373L1492,465L1545,371Z" fill="#d64734" stroke="#d64734"/><path d="M1545,371L1492,465L1579,490Z" fill="#d33b31" stroke="#d33b31"/><path d="M1545,371L1579,490L1647,406Z" fill="#cd4133" stroke="#cd4133"/><path d="M1647,406L1579,490L1631,534Z" fill="#ca3030" stroke="#ca3030"/><path d="M1647,406L1631,534L1742,545Z" fill="#c52b2f" stroke="#c52b2f"/><path d="M1647,406L1742,545L1784,482Z" fill="#c03032" stroke="#c03032"/><path d="M1647,406L1784,482L1771,410Z" fill="#bf3e35" stroke="#bf3e35"/><path d="M1771,410L1784,482L1820,430Z" fill="#b93b36" stroke="#b93b36"/><path d="M1820,430L1784,482L1869,500Z" fill="#b63234" stroke="#b63234"/><path d="M-20,477L-52,576L41,575Z" fill="#ff9f70" stroke="#ff9f70"/><path d="M-20,477L41,575L63,518Z" fill="#ffa26c" stroke="#ffa26c"/><path d="M63,518L41,575L166,622Z" fill="#ff9162" stroke="#ff9162"/><path d="M63,518L166,622L152,485Z" fill="#ff965f" stroke="#ff965f"/><path d="M152,485L166,622L206,506Z" fill="#ff935a" stroke="#ff935a"/><path d="M206,506L166,622L218,590Z" fill="#ff8955" stroke="#ff8955"/><path d="M206,506L218,590L328,530Z" fill="#ff8c50" stroke="#ff8c50"/><path d="M328,530L218,590L277,610Z" fill="#ff824c" stroke="#ff824c"/><path d="M328,530L277,610L392,580Z" fill="#ff7f48" stroke="#ff7f48"/><path d="M328,530L392,580L434,482Z" fill="#ff8446" stroke="#ff8446"/><path d="M434,482L392,580L506,592Z" fill="#ff7b3f" stroke="#ff7b3f"/><path d="M434,482L506,592L492,462Z" fill="#ff823f" stroke="#ff823f"/><path d="M492,462L506,592L597,528Z" fill="#ff7a3b" stroke="#ff7a3b"/><path d="M597,528L506,592L623,604Z" fill="#ff6b37" stroke="#ff6b37"/><path d="M597,528L623,604L686,573Z" fill="#fe6835" stroke="#fe6835"/><path d="M597,528L686,573L640,485Z" fill="#fe7138" stroke="#fe7138"/><path d="M640,485L686,573L765,481Z" fill="#fe7137" stroke="#fe7137"/><path d="M765,481L686,573L753,586Z" fill="#fe6633" stroke="#fe6633"/><path d="M765,481L753,586L839,518Z" fill="#fe6433" stroke="#fe6433"/><path d="M839,518L753,586L866,593Z" fill="#fe572f" stroke="#fe572f"/><path d="M839,518L866,593L929,588Z" fill="#fe4f2d" stroke="#fe4f2d"/><path d="M839,518L929,588L975,472Z" fill="#fe542e" stroke="#fe542e"/><path d="M975,472L929,588L1067,523Z" fill="#fe4b2b" stroke="#fe4b2b"/><path d="M1067,523L929,588L1075,598Z" fill="#fc3d28" stroke="#fc3d28"/><path d="M1067,523L1075,598L1129,601Z" fill="#f93525" stroke="#f93525"/><path d="M1067,523L1129,601L1106,494Z" fill="#f83c28" stroke="#f83c28"/><path d="M1106,494L1129,601L1239,563Z" fill="#f53325" stroke="#f53325"/><path d="M1106,494L1239,563L1253,507Z" fill="#f33626" stroke="#f33626"/><path d="M1253,507L1239,563L1281,497Z" fill="#ef3125" stroke="#ef3125"/><path d="M1281,497L1239,563L1340,549Z" fill="#ec2c25" stroke="#ec2c25"/><path d="M1281,497L1340,549L1417,480Z" fill="#e62f28" stroke="#e62f28"/><path d="M1417,480L1340,549L1454,607Z" fill="#e02327" stroke="#e02327"/><path d="M1417,480L1454,607L1492,465Z" fill="#db2829" stroke="#db2829"/><path d="M1492,465L1454,607L1579,490Z" fill="#d6252a" stroke="#d6252a"/><path d="M1579,490L1454,607L1570,623Z" fill="#d31928" stroke="#d31928"/><path d="M1579,490L1570,623L1631,534Z" fill="#cd1e2a" stroke="#cd1e2a"/><path d="M1631,534L1570,623L1683,587Z" fill="#ca1729" stroke="#ca1729"/><path d="M1631,534L1683,587L1742,545Z" fill="#c41d2c" stroke="#c41d2c"/><path d="M1784,482L1742,545L1869,500Z" fill="#b82831" stroke="#b82831"/><path d="M1869,500L1742,545L1872,621Z" fill="#b51d2f" stroke="#b51d2f"/><path d="M-52,576L-84,763L-31,640Z" fill="#f58974" stroke="#f58974"/><path d="M-52,576L-31,640L41,575Z" fill="#ff926d" stroke="#ff926d"/><path d="M41,575L-31,640L51,672Z" fill="#fa8c69" stroke="#fa8c69"/><path d="M41,575L51,672L166,622Z" fill="#fb8861" stroke="#fb8861"/><path d="M166,622L51,672L99,698Z" fill="#f48060" stroke="#f48060"/><path d="M166,622L99,698L235,746Z" fill="#ef785a" stroke="#ef785a"/><path d="M166,622L235,746L261,672Z" fill="#f07553" stroke="#f07553"/><path d="M166,622L261,672L218,590Z" fill="#fa7d52" stroke="#fa7d52"/><path d="M218,590L261,672L277,610Z" fill="#fb7a4d" stroke="#fb7a4d"/><path d="M277,610L261,672L325,673Z" fill="#f6744b" stroke="#f6744b"/><path d="M277,610L325,673L392,580Z" fill="#fb7547" stroke="#fb7547"/><path d="M392,580L325,673L369,674Z" fill="#f76f44" stroke="#f76f44"/><path d="M392,580L369,674L485,705Z" fill="#f56940" stroke="#f56940"/><path d="M392,580L485,705L506,592Z" fill="#fa6a3c" stroke="#fa6a3c"/><path d="M506,592L485,705L597,702Z" fill="#f35f39" stroke="#f35f39"/><path d="M506,592L597,702L623,604Z" fill="#f96037" stroke="#f96037"/><path d="M623,604L597,702L635,682Z" fill="#f35836" stroke="#f35836"/><path d="M623,604L635,682L686,573Z" fill="#fb5d34" stroke="#fb5d34"/><path d="M686,573L635,682L749,664Z" fill="#f75733" stroke="#f75733"/><path d="M686,573L749,664L753,586Z" fill="#fd5831" stroke="#fd5831"/><path d="M753,586L749,664L866,593Z" fill="#fc502f" stroke="#fc502f"/><path d="M866,593L749,664L859,686Z" fill="#f6472f" stroke="#f6472f"/><path d="M866,593L859,686L950,647Z" fill="#f63f2c" stroke="#f63f2c"/><path d="M866,593L950,647L929,588Z" fill="#fc412a" stroke="#fc412a"/><path d="M929,588L950,647L1075,598Z" fill="#fc3827" stroke="#fc3827"/><path d="M1075,598L950,647L1009,676Z" fill="#f63128" stroke="#f63128"/><path d="M1075,598L1009,676L1114,709Z" fill="#ef2827" stroke="#ef2827"/><path d="M1075,598L1114,709L1129,601Z" fill="#f12725" stroke="#f12725"/><path d="M1129,601L1114,709L1239,661Z" fill="#eb1f24" stroke="#eb1f24"/><path d="M1129,601L1239,661L1239,563Z" fill="#f12121" stroke="#f12121"/><path d="M1239,563L1239,661L1361,641Z" fill="#e91922" stroke="#e91922"/><path d="M1239,563L1361,641L1340,549Z" fill="#e91f22" stroke="#e91f22"/><path d="M1340,549L1361,641L1403,624Z" fill="#e31722" stroke="#e31722"/><path d="M1340,549L1403,624L1454,607Z" fill="#e11824" stroke="#e11824"/><path d="M1403,624L1361,641L1463,677Z" fill="#d70f25" stroke="#d70f25"/><path d="M1403,624L1463,677L1454,607Z" fill="#d60f25" stroke="#d60f25"/><path d="M1454,607L1463,677L1570,623Z" fill="#d00d27" stroke="#d00d27"/><path d="M1570,623L1463,677L1592,668Z" fill="#c80a28" stroke="#c80a28"/><path d="M1570,623L1592,668L1683,587Z" fill="#c60e28" stroke="#c60e28"/><path d="M1683,587L1592,668L1692,651Z" fill="#c10d2a" stroke="#c10d2a"/><path d="M1683,587L1692,651L1729,642Z" fill="#be0e2a" stroke="#be0e2a"/><path d="M1683,587L1729,642L1742,545Z" fill="#c0142a" stroke="#c0142a"/><path d="M1742,545L1729,642L1872,621Z" fill="#ba122b" stroke="#ba122b"/><path d="M1872,621L1729,642L1835,674Z" fill="#af0b2d" stroke="#af0b2d"/><path d="M1872,621L1835,674L1871,786Z" fill="#a10430" stroke="#a10430"/><path d="M-31,640L-84,763L51,672Z" fill="#ef8471" stroke="#ef8471"/><path d="M51,672L-84,763L55,789Z" fill="#e67f70" stroke="#e67f70"/><path d="M51,672L55,789L99,698Z" fill="#ea7b67" stroke="#ea7b67"/><path d="M99,698L55,789L126,779Z" fill="#e37966" stroke="#e37966"/><path d="M99,698L126,779L235,746Z" fill="#e5745e" stroke="#e5745e"/><path d="M261,672L235,746L325,673Z" fill="#ed6e4e" stroke="#ed6e4e"/><path d="M325,673L235,746L281,790Z" fill="#e66a4f" stroke="#e66a4f"/><path d="M325,673L281,790L369,674Z" fill="#ea684b" stroke="#ea684b"/><path d="M369,674L281,790L441,735Z" fill="#e76448" stroke="#e76448"/><path d="M369,674L441,735L485,705Z" fill="#ec6142" stroke="#ec6142"/><path d="M485,705L441,735L476,783Z" fill="#e55b40" stroke="#e55b40"/><path d="M485,705L476,783L567,743Z" fill="#e5583d" stroke="#e5583d"/><path d="M485,705L567,743L597,702Z" fill="#ea563b" stroke="#ea563b"/><path d="M597,702L567,743L691,730Z" fill="#e85039" stroke="#e85039"/><path d="M597,702L691,730L635,682Z" fill="#eb5138" stroke="#eb5138"/><path d="M635,682L691,730L749,664Z" fill="#ee4f35" stroke="#ee4f35"/><path d="M749,664L691,730L778,754Z" fill="#e94835" stroke="#e94835"/><path d="M749,664L778,754L859,686Z" fill="#ec4332" stroke="#ec4332"/><path d="M859,686L778,754L877,783Z" fill="#e53a32" stroke="#e53a32"/><path d="M859,686L877,783L983,748Z" fill="#e5322f" stroke="#e5322f"/><path d="M859,686L983,748L950,647Z" fill="#ed332d" stroke="#ed332d"/><path d="M950,647L983,748L1009,676Z" fill="#ed2d2b" stroke="#ed2d2b"/><path d="M1009,676L983,748L1095,733Z" fill="#e6232b" stroke="#e6232b"/><path d="M1009,676L1095,733L1114,709Z" fill="#e62129" stroke="#e62129"/><path d="M1114,709L1095,733L1228,763Z" fill="#dd1728" stroke="#dd1728"/><path d="M1114,709L1228,763L1239,661Z" fill="#df1325" stroke="#df1325"/><path d="M1239,661L1228,763L1294,688Z" fill="#dc0f25" stroke="#dc0f25"/><path d="M1239,661L1294,688L1361,641Z" fill="#df1224" stroke="#df1224"/><path d="M1294,688L1228,763L1298,803Z" fill="#d20b27" stroke="#d20b27"/><path d="M1294,688L1298,803L1361,754Z" fill="#ce0927" stroke="#ce0927"/><path d="M1294,688L1361,754L1361,641Z" fill="#d60c26" stroke="#d60c26"/><path d="M1361,641L1361,754L1463,677Z" fill="#d10926" stroke="#d10926"/><path d="M1463,677L1361,754L1468,773Z" fill="#c50329" stroke="#c50329"/><path d="M1463,677L1468,773L1596,768Z" fill="#bd002b" stroke="#bd002b"/><path d="M1463,677L1596,768L1592,668Z" fill="#be032b" stroke="#be032b"/><path d="M1592,668L1596,768L1677,726Z" fill="#b4002d" stroke="#b4002d"/><path d="M1592,668L1677,726L1692,651Z" fill="#b8062c" stroke="#b8062c"/><path d="M1692,651L1677,726L1718,736Z" fill="#b0032e" stroke="#b0032e"/><path d="M1692,651L1718,736L1729,642Z" fill="#b3072c" stroke="#b3072c"/><path d="M1729,642L1718,736L1835,674Z" fill="#ad062e" stroke="#ad062e"/><path d="M1835,674L1718,736L1871,786Z" fill="#9f0031" stroke="#9f0031"/><path d="M-84,763L-27,938L-22,847Z" fill="#d2807b" stroke="#d2807b"/><path d="M-84,763L-22,847L55,789Z" fill="#db8075" stroke="#db8075"/><path d="M55,789L-22,847L40,870Z" fill="#d47e71" stroke="#d47e71"/><path d="M55,789L40,870L133,838Z" fill="#d57a6b" stroke="#d57a6b"/><path d="M55,789L133,838L126,779Z" fill="#db7867" stroke="#db7867"/><path d="M126,779L133,838L209,837Z" fill="#d77461" stroke="#d77461"/><path d="M126,779L209,837L235,746Z" fill="#dd715b" stroke="#dd715b"/><path d="M235,746L209,837L281,790Z" fill="#dc6d55" stroke="#dc6d55"/><path d="M281,790L209,837L312,847Z" fill="#d66b55" stroke="#d66b55"/><path d="M281,790L312,847L432,827Z" fill="#d7654e" stroke="#d7654e"/><path d="M281,790L432,827L441,735Z" fill="#dd6249" stroke="#dd6249"/><path d="M441,735L432,827L476,783Z" fill="#de5d43" stroke="#de5d43"/><path d="M476,783L432,827L500,818Z" fill="#d95b42" stroke="#d95b42"/><path d="M476,783L500,818L567,743Z" fill="#de583f" stroke="#de583f"/><path d="M567,743L500,818L581,840Z" fill="#da553e" stroke="#da553e"/><path d="M567,743L581,840L675,826Z" fill="#da513d" stroke="#da513d"/><path d="M567,743L675,826L691,730Z" fill="#e04e3a" stroke="#e04e3a"/><path d="M691,730L675,826L778,754Z" fill="#df4938" stroke="#df4938"/><path d="M778,754L675,826L741,871Z" fill="#d74839" stroke="#d74839"/><path d="M778,754L741,871L877,783Z" fill="#d93f36" stroke="#d93f36"/><path d="M877,783L741,871L894,855Z" fill="#d33b36" stroke="#d33b36"/><path d="M877,783L894,855L997,820Z" fill="#d63032" stroke="#d63032"/><path d="M877,783L997,820L983,748Z" fill="#dc2c30" stroke="#dc2c30"/><path d="M983,748L997,820L1007,798Z" fill="#db272f" stroke="#db272f"/><path d="M983,748L1007,798L1095,733Z" fill="#df232c" stroke="#df232c"/><path d="M1007,798L997,820L1089,818Z" fill="#d5232f" stroke="#d5232f"/><path d="M1007,798L1089,818L1095,733Z" fill="#d91f2c" stroke="#d91f2c"/><path d="M1095,733L1089,818L1228,763Z" fill="#d7182a" stroke="#d7182a"/><path d="M1228,763L1089,818L1153,911Z" fill="#cb162b" stroke="#cb162b"/><path d="M1228,763L1153,911L1228,895Z" fill="#c4112b" stroke="#c4112b"/><path d="M1228,763L1228,895L1298,803Z" fill="#c80c29" stroke="#c80c29"/><path d="M1298,803L1228,895L1306,844Z" fill="#c00b2b" stroke="#c00b2b"/><path d="M1298,803L1306,844L1384,833Z" fill="#bf082b" stroke="#bf082b"/><path d="M1298,803L1384,833L1361,754Z" fill="#c2072a" stroke="#c2072a"/><path d="M1361,754L1384,833L1468,773Z" fill="#be042b" stroke="#be042b"/><path d="M1468,773L1384,833L1469,871Z" fill="#b4022d" stroke="#b4022d"/><path d="M1468,773L1469,871L1563,856Z" fill="#ac002f" stroke="#ac002f"/><path d="M1468,773L1563,856L1596,768Z" fill="#ae002e" stroke="#ae002e"/><path d="M1596,768L1563,856L1664,844Z" fill="#a30030" stroke="#a30030"/><path d="M1596,768L1664,844L1677,726Z" fill="#a70030" stroke="#a70030"/><path d="M1677,726L1664,844L1718,736Z" fill="#a50030" stroke="#a50030"/><path d="M1718,736L1664,844L1757,869Z" fill="#990032" stroke="#990032"/><path d="M1718,736L1757,869L1819,861Z" fill="#930033" stroke="#930033"/><path d="M1718,736L1819,861L1871,786Z" fill="#940033" stroke="#940033"/><path d="M1871,786L1819,861L1820,933Z" fill="#850036" stroke="#850036"/><path d="M-22,847L-27,938L42,912Z" fill="#c98078" stroke="#c98078"/><path d="M-22,847L42,912L40,870Z" fill="#cd7e74" stroke="#cd7e74"/><path d="M40,870L42,912L133,838Z" fill="#ce7a6e" stroke="#ce7a6e"/><path d="M133,838L42,912L171,946Z" fill="#c97769" stroke="#c97769"/><path d="M133,838L171,946L209,837Z" fill="#cd7361" stroke="#cd7361"/><path d="M209,837L171,946L250,974Z" fill="#c5705e" stroke="#c5705e"/><path d="M209,837L250,974L301,935Z" fill="#c56c59" stroke="#c56c59"/><path d="M209,837L301,935L312,847Z" fill="#cd6b56" stroke="#cd6b56"/><path d="M312,847L301,935L380,944Z" fill="#c76653" stroke="#c76653"/><path d="M312,847L380,944L432,827Z" fill="#cd634d" stroke="#cd634d"/><path d="M432,827L380,944L467,926Z" fill="#c85f4a" stroke="#c85f4a"/><path d="M432,827L467,926L500,818Z" fill="#d05b45" stroke="#d05b45"/><path d="M500,818L467,926L581,840Z" fill="#cf5842" stroke="#cf5842"/><path d="M581,840L467,926L620,911Z" fill="#ca5542" stroke="#ca5542"/><path d="M581,840L620,911L675,826Z" fill="#cf4f3e" stroke="#cf4f3e"/><path d="M675,826L620,911L697,946Z" fill="#c94d3e" stroke="#c94d3e"/><path d="M675,826L697,946L741,871Z" fill="#cb4a3c" stroke="#cb4a3c"/><path d="M741,871L697,946L804,936Z" fill="#c4463d" stroke="#c4463d"/><path d="M741,871L804,936L894,855Z" fill="#ca3e39" stroke="#ca3e39"/><path d="M894,855L804,936L833,942Z" fill="#c63a39" stroke="#c63a39"/><path d="M894,855L833,942L936,924Z" fill="#c63437" stroke="#c63437"/><path d="M894,855L936,924L963,890Z" fill="#c92f35" stroke="#c92f35"/><path d="M894,855L963,890L997,820Z" fill="#cf2c33" stroke="#cf2c33"/><path d="M963,890L936,924L1049,948Z" fill="#c32834" stroke="#c32834"/><path d="M963,890L1049,948L997,820Z" fill="#c92632" stroke="#c92632"/><path d="M997,820L1049,948L1089,818Z" fill="#cb2130" stroke="#cb2130"/><path d="M1089,818L1049,948L1153,911Z" fill="#c31c30" stroke="#c31c30"/><path d="M1228,895L1153,911L1243,960Z" fill="#b8102e" stroke="#b8102e"/><path d="M1228,895L1243,960L1333,933Z" fill="#b20c2e" stroke="#b20c2e"/><path d="M1228,895L1333,933L1306,844Z" fill="#b70a2d" stroke="#b70a2d"/><path d="M1306,844L1333,933L1384,833Z" fill="#b6082d" stroke="#b6082d"/><path d="M1384,833L1333,933L1383,933Z" fill="#ae062f" stroke="#ae062f"/><path d="M1384,833L1383,933L1469,871Z" fill="#ac042f" stroke="#ac042f"/><path d="M1469,871L1383,933L1482,949Z" fill="#a20231" stroke="#a20231"/><path d="M1469,871L1482,949L1563,856Z" fill="#a10031" stroke="#a10031"/><path d="M1563,856L1482,949L1569,945Z" fill="#990033" stroke="#990033"/><path d="M1563,856L1569,945L1636,913Z" fill="#960033" stroke="#960033"/><path d="M1563,856L1636,913L1664,844Z" fill="#990033" stroke="#990033"/><path d="M1664,844L1636,913L1718,907Z" fill="#910035" stroke="#910035"/><path d="M1664,844L1718,907L1757,869Z" fill="#8f0035" stroke="#8f0035"/><path d="M1757,869L1718,907L1820,933Z" fill="#850037" stroke="#850037"/><path d="M1757,869L1820,933L1819,861Z" fill="#840037" stroke="#840037"/><path d="M-27,938L250,974L171,946Z" fill="#bf7669" stroke="#bf7669"/><path d="M-27,938L171,946L42,912Z" fill="#c37b71" stroke="#c37b71"/><path d="M250,974L1243,960L697,946Z" fill="#bd483f" stroke="#bd483f"/><path d="M250,974L697,946L380,944Z" fill="#be5d4b" stroke="#be5d4b"/><path d="M250,974L380,944L301,935Z" fill="#bf6856" stroke="#bf6856"/><path d="M380,944L697,946L467,926Z" fill="#c15845" stroke="#c15845"/><path d="M467,926L697,946L620,911Z" fill="#c35242" stroke="#c35242"/><path d="M697,946L1243,960L1049,948Z" fill="#bd2635" stroke="#bd2635"/><path d="M697,946L1049,948L833,942Z" fill="#bf383a" stroke="#bf383a"/><path d="M697,946L833,942L804,936Z" fill="#c0423c" stroke="#c0423c"/><path d="M833,942L1049,948L936,924Z" fill="#c02e37" stroke="#c02e37"/><path d="M1049,948L1243,960L1153,911Z" fill="#b81630" stroke="#b81630"/><path d="M1243,960L1569,945L1482,949Z" fill="#9d0332" stroke="#9d0332"/><path d="M1243,960L1482,949L1383,933Z" fill="#a40631" stroke="#a40631"/><path d="M1243,960L1383,933L1333,933Z" fill="#aa092f" stroke="#aa092f"/><path d="M1569,945L1820,933L1718,907Z" fill="#860037" stroke="#860037"/><path d="M1569,945L1718,907L1636,913Z" fill="#8e0035" stroke="#8e0035"/></g></svg>